<?xml version="1.0" standalone="no"?>
<!DOCTYPE svg PUBLIC "-//W3C//DTD SVG 20010904//EN"
 "http://www.w3.org/TR/2001/REC-SVG-20010904/DTD/svg10.dtd">
<svg version="1.0" xmlns="http://www.w3.org/2000/svg"
 width="16.000000pt" height="16.000000pt" viewBox="0 0 16.000000 16.000000"
 preserveAspectRatio="xMidYMid meet">
<metadata>
Created by potrace 1.11, written by Peter Selinger 2001-2013
</metadata>
<g transform="translate(0.000000,16.000000) scale(0.001563,-0.001563)"
fill="#000000" stroke="none">
<path d="M0 5120 l0 -5120 5120 0 5120 0 0 5120 0 5120 -5120 0 -5120 0 0
-5120z m5995 2806 c89 -24 175 -50 191 -59 37 -19 64 -57 71 -101 4 -23 -221
-815 -851 -2996 -471 -1631 -861 -2977 -867 -2991 -6 -15 -23 -39 -39 -54 -47
-45 -91 -44 -283 10 -150 43 -170 51 -197 81 -16 18 -32 49 -36 69 -5 28 154
589 855 3015 474 1640 869 2993 878 3007 15 23 83 62 108 63 6 0 82 -20 170
-44z m-2728 -827 c32 -12 288 -261 309 -301 19 -36 18 -91 -2 -131 -9 -18
-423 -439 -920 -937 l-904 -905 906 -905 c498 -498 912 -917 920 -932 18 -34
18 -91 0 -126 -8 -15 -79 -91 -158 -169 l-145 -143 -59 0 -59 0 -1103 1103
c-1197 1196 -1134 1127 -1110 1215 8 31 192 220 1091 1120 595 596 1098 1092
1117 1102 40 22 76 25 117 9z m3816 -5 c39 -19 2182 -2157 2203 -2198 18 -32
21 -105 5 -133 -5 -10 -504 -512 -1108 -1115 l-1098 -1098 -59 0 -59 0 -145
143 c-79 78 -150 154 -158 169 -18 35 -18 92 0 126 8 15 422 434 920 932 l906
905 -904 905 c-497 498 -911 919 -920 937 -20 40 -21 95 -2 131 20 37 264 277
301 296 39 20 78 20 118 0z"/>
</g>
</svg>
