<?xml version="1.0" standalone="no"?>
<!DOCTYPE svg PUBLIC "-//W3C//DTD SVG 20010904//EN"
 "http://www.w3.org/TR/2001/REC-SVG-20010904/DTD/svg10.dtd">
<svg version="1.0" xmlns="http://www.w3.org/2000/svg"
 width="512.000000pt" height="512.000000pt" viewBox="0 0 512.000000 512.000000"
 preserveAspectRatio="xMidYMid meet">
<metadata>
Created by potrace 1.11, written by Peter Selinger 2001-2013
</metadata>
<g transform="translate(0.000000,512.000000) scale(0.100000,-0.100000)"
fill="#000000" stroke="none">
<path d="M0 2560 l0 -2560 2560 0 2560 0 0 2560 0 2560 -2560 0 -2560 0 0
-2560z m3019 1399 c78 -21 111 -45 111 -82 0 -20 -828 -2898 -856 -2973 -23
-64 -50 -71 -160 -40 -91 25 -124 49 -124 87 0 39 859 2992 876 3010 22 24 59
24 153 -2z m-1301 -483 c78 -76 91 -101 72 -138 -7 -12 -215 -227 -463 -475
l-452 -453 463 -463 c354 -354 462 -468 462 -487 0 -16 -25 -49 -83 -107 -66
-66 -89 -83 -112 -83 -25 0 -105 76 -582 553 -520 519 -553 554 -553 587 0 33
33 68 553 586 303 304 559 554 567 557 29 10 56 -6 128 -77z m2380 -479 c519
-519 552 -554 552 -587 0 -33 -33 -68 -553 -587 -477 -477 -557 -553 -582
-553 -23 0 -46 17 -112 83 -58 58 -83 91 -83 107 0 19 108 133 462 487 l463
463 -452 453 c-248 248 -456 462 -462 474 -20 39 -12 54 62 130 76 80 100 95
132 86 11 -3 269 -253 573 -556z"/>
</g>
</svg>
