<?xml version="1.0" standalone="no"?>
<!DOCTYPE svg PUBLIC "-//W3C//DTD SVG 20010904//EN"
 "http://www.w3.org/TR/2001/REC-SVG-20010904/DTD/svg10.dtd">
<svg version="1.0" xmlns="http://www.w3.org/2000/svg"
 width="700.000000pt" height="700.000000pt" viewBox="0 0 700.000000 700.000000"
 preserveAspectRatio="xMidYMid meet">
<metadata>
Created by potrace 1.11, written by Peter Selinger 2001-2013
</metadata>
<g transform="translate(0.000000,700.000000) scale(0.100000,-0.100000)"
fill="#000000" stroke="none">
<path d="M663 4714 c-2 -7 -3 -54 -1 -105 l3 -94 158 0 c98 0 157 -4 158 -10
1 -14 1 -1996 0 -2017 -1 -16 -17 -18 -158 -20 l-158 -3 0 -100 0 -100 453 -1
452 -2 0 104 0 103 -170 -2 -170 -2 0 456 0 455 448 0 447 -1 3 103 3 102
-451 0 -450 0 0 460 0 460 433 -2 432 -3 0 -145 0 -145 111 -3 110 -3 -1 263
0 263 -824 0 c-618 0 -825 -3 -828 -11z"/>
<path d="M4366 4721 c-2 -3 -2 -49 -2 -101 l1 -95 149 -2 c82 -1 154 -4 160
-6 8 -3 11 -288 11 -1023 l0 -1019 -158 -3 c-86 -1 -158 -6 -158 -10 -1 -4 -3
-48 -4 -99 -2 -77 0 -92 14 -95 9 -2 207 -4 441 -3 l425 0 3 103 3 102 -161 0
-160 0 2 422 3 423 215 -2 c225 -1 271 -7 325 -45 29 -20 129 -174 238 -368
82 -147 276 -474 310 -522 64 -93 101 -107 292 -112 l125 -3 0 103 0 104 -71
0 c-86 0 -128 18 -162 68 -14 20 -118 199 -232 397 -114 198 -221 374 -237
392 -23 24 -27 33 -17 37 8 2 34 9 59 16 99 26 192 82 270 161 132 133 189
276 195 489 8 318 -119 530 -378 630 -39 16 -88 31 -107 34 -19 3 -46 8 -60
10 -14 3 -47 8 -75 12 -58 8 -1255 13 -1259 5z m1214 -215 c131 -18 252 -75
320 -152 125 -143 138 -444 26 -618 -82 -127 -198 -196 -357 -212 -52 -5 -474
-9 -606 -5 l-33 1 0 498 0 498 298 -2 c163 0 322 -4 352 -8z"/>
<path d="M2824 3371 c-2 -2 -4 -53 -4 -113 l0 -108 495 0 495 0 0 113 0 112
-491 0 c-270 0 -493 -2 -495 -4z"/>
</g>
</svg>
