<svg version="1" xmlns="http://www.w3.org/2000/svg" width="1333.333" height="1333.333" viewBox="0 0 1000.000000 1000.000000"><path d="M0 500v500h1000V0H0v500zm612.1-385.9c17.3 5 32.2 9.6 33.2 10.1 2.7 1.4 5.7 6.9 5.7 10.4 0 1.7-1.5 8.3-3.4 14.5-1.9 6.3-5.7 19.5-8.6 29.4-2.8 9.9-6.7 23.2-8.5 29.5-7.2 24.5-13 44.5-28.5 98-8.8 30.5-17.6 60.7-19.4 67-1.9 6.3-5.3 18-7.6 26s-5.9 20.3-8 27.5c-2.1 7.1-5.7 19.5-8 27.5-5.4 18.7-12.3 42.5-16.5 57-1.9 6.3-5.5 18.7-8 27.5-2.6 8.8-6.2 21.2-8.1 27.5-1.8 6.3-10.6 36.5-19.4 67-8.8 30.5-17.9 61.8-20.1 69.5-2.3 7.7-5.8 19.8-7.9 27-2.1 7.1-5.7 19.5-8 27.5s-5.9 20.3-8 27.5c-2.1 7.1-5.6 19.3-7.9 27-2.2 7.7-7.2 25-11.2 38.5-3.9 13.5-8 27.6-9.1 31.5-2.1 7.5-3.7 9.9-8 12.1-3.9 2-5.3 1.8-22.1-3-8.3-2.4-22.4-6.5-31.2-9.1-8.8-2.5-17.1-5.4-18.5-6.4-1.4-.9-3.3-3.4-4.3-5.4-2.1-4.1-2-4.3 8.3-39.2 2.1-7.2 5.7-19.5 8-27.5 6.4-22.1 12.8-44.3 16.6-57 1.8-6.3 10.6-36.5 19.4-67 8.9-30.5 19.7-67.9 24.1-83 4.4-15.1 9.8-33.8 12-41.5 2.3-7.7 5.8-19.9 7.9-27 2.1-7.2 5.7-19.5 8-27.5s5.9-20.4 8-27.5c2.1-7.2 5.6-19.3 7.9-27 2.2-7.7 11.3-39 20.1-69.5s17.6-60.7 19.4-67c3.8-12.7 10.2-34.9 16.6-57 2.3-8 5.9-20.4 8-27.5 2.1-7.2 5.7-19.5 8-27.5s5.7-19.7 7.5-26c1.9-6.3 5.5-18.7 8-27.5 9.2-31.8 9.3-32 12.2-34.7 3.1-2.8 4.7-3.6 7.9-3.7 1.2-.1 16.2 4 33.5 9zM285.7 289.5c1.2.3 12.5 11.6 25.2 25.1 23.8 25.5 24.9 27.1 23.7 33.9-.9 4.4 4.2-.2-130.3 118.7-20 17.7-36.3 32.4-36.3 32.8 0 .3 6.8 6.7 15.2 14.1 16.1 14.1 65.8 58.3 116.8 103.5 16.8 14.9 31.3 28.1 32.4 29.2 1 1.2 2 4 2.3 6.4.4 3.5 0 5-2.1 8.1-3.8 5.5-43.2 47.2-46.2 48.7-3.7 2-9.2 1.5-12.8-1.1-1.7-1.3-20.6-18.8-42.1-38.9-21.4-20.2-68.7-64.4-105-98.4-36.3-33.9-67-63.1-68.2-64.8-2.7-3.7-2.9-8.2-.6-12.4 1.6-2.7 27.8-27.6 147.8-139.9 17-16 39.4-37 49.8-46.7 20.9-19.7 22.4-20.6 30.4-18.3zm440 .4c1.4.7 17.3 15.6 130.5 121.9 69.4 65.2 87 82.2 87.7 84.8 2.1 7.5 1.8 7.9-39.7 46.7-21.2 19.9-57.6 54-80.7 75.7-89.5 84.1-96.6 90.5-99.9 91.7-7 2.4-8.7 1.2-32.8-24.4-12.3-12.9-22.8-24.5-23.5-25.7-2.1-3.6-1.6-10.8 1-13.7 1.2-1.5 38.7-35 83.2-74.5 44.6-39.5 81-72.1 81-72.4 0-.3-36.7-33.1-81.5-72.9-44.8-39.7-82.3-73.4-83.2-74.9-2-3.1-2.3-9.3-.6-12.5 2.1-4.1 45.2-49 48.3-50.3 2.8-1.3 7.4-1 10.2.5z"/></svg>