<svg version="1" xmlns="http://www.w3.org/2000/svg" width="682.667" height="682.667" viewBox="0 0 512.000000 512.000000"><path d="M0 256v256h512V0H0v256zM314 58.5c8.5 2.5 15.5 4.5 15.6 4.5 1.3 0 3.4 3.7 3.4 5.9 0 1.5-5.4 21.2-11.9 43.7-6.5 22.5-25.9 89.3-43.1 148.4-17.2 59.1-36.8 126.8-43.7 150.5-6.9 23.6-13.2 43.8-14 44.7-2.3 2.6-4.9 2.3-22.2-2.8-16.1-4.7-19.1-6.2-19.1-9.8 0-1.2 7.2-26.9 16-57.1 8.8-30.3 29.4-101.4 45.9-158 16.4-56.7 34.2-118.1 39.6-136.5 5.3-18.4 10.3-34.5 11.1-35.8 2-3.1 4.8-2.9 22.4 2.3zm-155.4 102c13.4 14.1 13.7 14.6 12.9 17.7-.4 1.4-17.1 17-43 39.8-23.3 20.6-42.4 37.7-42.4 38 0 .3 19.1 17.4 42.4 38 23.3 20.6 42.6 38.3 42.9 39.3.8 3.3-.6 5.3-12.7 18.2-10 10.6-12.3 12.5-14.8 12.5s-5.5-2.4-17.2-13.3c-7.8-7.3-32.6-30.5-55.2-51.6s-41.4-39.4-41.9-40.6c-.5-1.2-.6-3.3-.2-4.6.4-1.4 20.4-20.8 46.2-44.9 70.2-65.6 65-61 68.3-61 2.5 0 4.9 2 14.7 12.5zM427 200.1c30.5 28.6 55.9 53.1 56.3 54.5.6 1.7.5 3.1-.5 4.4-.7 1.1-26 25.2-56.3 53.5-48.1 45-55.4 51.5-58.1 51.5-2.7 0-4.7-1.8-15.3-13.1-11-11.7-12.2-13.3-11.9-16.2.3-2.8 5.2-7.6 42.3-40.5 23.1-20.5 42-37.7 42-38.2s-18.9-17.7-42-38.2c-37.1-32.9-42-37.7-42.3-40.5-.3-2.9.9-4.5 11.9-16.2 10.6-11.4 12.6-13.1 15.3-13.1 2.7 0 10.1 6.6 58.6 52.1z"/></svg>