<?xml version="1.0" standalone="no"?>
<!DOCTYPE svg PUBLIC "-//W3C//DTD SVG 20010904//EN"
 "http://www.w3.org/TR/2001/REC-SVG-20010904/DTD/svg10.dtd">
<svg version="1.0" xmlns="http://www.w3.org/2000/svg"
 width="512.000000pt" height="512.000000pt" viewBox="0 0 512.000000 512.000000"
 preserveAspectRatio="xMidYMid meet">
<metadata>
Created by potrace 1.11, written by Peter Selinger 2001-2013
</metadata>
<g transform="translate(0.000000,512.000000) scale(0.100000,-0.100000)"
fill="#000000" stroke="none">
<path d="M0 2560 l0 -2560 2560 0 2560 0 0 2560 0 2560 -2560 0 -2560 0 0
-2560z m3140 1975 c85 -25 155 -45 156 -45 13 0 34 -37 34 -59 0 -15 -54 -212
-119 -437 -65 -225 -259 -893 -431 -1484 -172 -591 -368 -1268 -437 -1505 -69
-236 -132 -438 -140 -447 -23 -26 -49 -23 -222 28 -161 47 -191 62 -191 98 0
12 72 269 160 571 88 303 294 1014 459 1580 164 567 342 1181 396 1365 53 184
103 345 111 358 20 31 48 29 224 -23z m-1554 -1020 c134 -141 137 -146 129
-177 -4 -14 -171 -170 -430 -398 -233 -206 -424 -377 -424 -380 0 -3 191 -174
424 -380 233 -206 426 -383 429 -393 8 -33 -6 -53 -127 -182 -100 -106 -123
-125 -148 -125 -25 0 -55 24 -172 133 -78 73 -326 305 -552 516 -226 211 -414
394 -419 406 -5 12 -6 33 -2 46 4 14 204 208 462 449 702 656 650 610 683 610
25 0 49 -20 147 -125z m2684 -396 c305 -286 559 -531 563 -545 6 -17 5 -31 -5
-44 -7 -11 -260 -252 -563 -535 -481 -450 -554 -515 -581 -515 -27 0 -47 18
-153 131 -110 117 -122 133 -119 162 3 28 52 76 423 405 231 205 420 377 420
382 0 5 -189 177 -420 382 -371 329 -420 377 -423 405 -3 29 9 45 119 162 106
114 126 131 153 131 27 0 101 -66 586 -521z"/>
</g>
</svg>
