<?xml version="1.0" standalone="no"?>
<!DOCTYPE svg PUBLIC "-//W3C//DTD SVG 20010904//EN"
 "http://www.w3.org/TR/2001/REC-SVG-20010904/DTD/svg10.dtd">
<svg version="1.0" xmlns="http://www.w3.org/2000/svg"
 width="1024.000000pt" height="1024.000000pt" viewBox="0 0 1024.000000 1024.000000"
 preserveAspectRatio="xMidYMid meet">
<metadata>
Created by potrace 1.11, written by Peter Selinger 2001-2013
</metadata>
<g transform="translate(0.000000,1024.000000) scale(0.100000,-0.100000)"
fill="#000000" stroke="none">
<path d="M0 5120 l0 -5120 5120 0 5120 0 0 5120 0 5120 -5120 0 -5120 0 0
-5120z m6021 2805 c181 -51 220 -74 239 -146 9 -32 -70 -311 -830 -2945 -463
-1600 -852 -2947 -866 -2994 -29 -95 -70 -145 -128 -155 -40 -8 -356 77 -399
107 -36 26 -60 73 -59 118 0 19 387 1373 860 3008 767 2652 863 2977 889 3004
57 61 83 61 294 3z m-2588 -973 c155 -155 174 -184 162 -250 -6 -33 -115 -146
-921 -952 -503 -503 -914 -920 -914 -925 0 -6 410 -420 910 -920 654 -654 913
-919 921 -943 23 -70 9 -95 -149 -254 -157 -159 -185 -177 -259 -164 -34 7
-146 115 -1132 1099 -640 640 -1099 1105 -1107 1124 -18 41 -18 87 0 121 8 15
507 518 1108 1119 886 885 1100 1093 1128 1101 68 17 95 1 253 -156z m4755
-945 c601 -601 1100 -1104 1108 -1119 18 -34 18 -80 0 -121 -8 -19 -467 -484
-1107 -1124 -986 -984 -1098 -1092 -1132 -1099 -74 -13 -102 5 -259 164 -158
159 -172 184 -149 254 8 24 267 289 921 943 500 500 910 914 910 920 0 5 -411
422 -914 925 -993 993 -944 939 -917 1022 16 50 295 324 341 336 79 20 30 65
1198 -1101z"/>
</g>
</svg>
